<mxfile host="Electron" agent="Mozilla/5.0 (Windows NT 10.0; Win64; x64) AppleWebKit/537.36 (KHTML, like Gecko) draw.io/26.2.2 Chrome/134.0.6998.178 Electron/35.1.2 Safari/537.36" version="26.2.2">
  <diagram name="Page-1" id="c5_EQEiFLSZjdYRs2da4">
    <mxGraphModel dx="858" dy="502" grid="1" gridSize="10" guides="1" tooltips="1" connect="1" arrows="1" fold="1" page="1" pageScale="1" pageWidth="827" pageHeight="1169" math="0" shadow="0">
      <root>
        <mxCell id="0" />
        <mxCell id="1" parent="0" />
        <mxCell id="4oyovKfW9TJIHEhvJgS5-9" style="edgeStyle=orthogonalEdgeStyle;rounded=0;orthogonalLoop=1;jettySize=auto;html=1;entryX=0.5;entryY=1;entryDx=0;entryDy=0;" edge="1" parent="1" source="4oyovKfW9TJIHEhvJgS5-1" target="4oyovKfW9TJIHEhvJgS5-3">
          <mxGeometry relative="1" as="geometry" />
        </mxCell>
        <mxCell id="4oyovKfW9TJIHEhvJgS5-10" style="edgeStyle=orthogonalEdgeStyle;rounded=0;orthogonalLoop=1;jettySize=auto;html=1;entryX=0.5;entryY=1;entryDx=0;entryDy=0;" edge="1" parent="1" source="4oyovKfW9TJIHEhvJgS5-1" target="4oyovKfW9TJIHEhvJgS5-4">
          <mxGeometry relative="1" as="geometry" />
        </mxCell>
        <mxCell id="4oyovKfW9TJIHEhvJgS5-11" style="edgeStyle=orthogonalEdgeStyle;rounded=0;orthogonalLoop=1;jettySize=auto;html=1;entryX=0.5;entryY=0;entryDx=0;entryDy=0;" edge="1" parent="1" source="4oyovKfW9TJIHEhvJgS5-17" target="4oyovKfW9TJIHEhvJgS5-7">
          <mxGeometry relative="1" as="geometry" />
        </mxCell>
        <mxCell id="4oyovKfW9TJIHEhvJgS5-23" style="edgeStyle=orthogonalEdgeStyle;rounded=0;orthogonalLoop=1;jettySize=auto;html=1;entryX=0.5;entryY=0;entryDx=0;entryDy=0;" edge="1" parent="1" source="4oyovKfW9TJIHEhvJgS5-1" target="4oyovKfW9TJIHEhvJgS5-18">
          <mxGeometry relative="1" as="geometry" />
        </mxCell>
        <mxCell id="4oyovKfW9TJIHEhvJgS5-1" value="&lt;font style=&quot;font-size: 16px;&quot;&gt;&lt;b style=&quot;&quot;&gt;EDA&amp;nbsp;&lt;/b&gt;&lt;/font&gt;&lt;div&gt;&lt;font style=&quot;font-size: 14px;&quot;&gt;(Exploratory Data Analysis)&lt;/font&gt;&lt;/div&gt;" style="rounded=1;whiteSpace=wrap;html=1;fillColor=#f5f5f5;fontColor=#333333;strokeColor=none;" vertex="1" parent="1">
          <mxGeometry x="330" y="210" width="190" height="90" as="geometry" />
        </mxCell>
        <mxCell id="4oyovKfW9TJIHEhvJgS5-2" value="Database Exploration" style="rounded=1;whiteSpace=wrap;html=1;fillColor=#ffe6cc;strokeColor=none;" vertex="1" parent="1">
          <mxGeometry x="160" y="100" width="130" height="70" as="geometry" />
        </mxCell>
        <mxCell id="4oyovKfW9TJIHEhvJgS5-3" value="Date Exploration" style="rounded=1;whiteSpace=wrap;html=1;fillColor=#ffe6cc;strokeColor=none;" vertex="1" parent="1">
          <mxGeometry x="360" y="100" width="130" height="70" as="geometry" />
        </mxCell>
        <mxCell id="4oyovKfW9TJIHEhvJgS5-4" value="Dimension Exploration" style="rounded=1;whiteSpace=wrap;html=1;fillColor=#dae8fc;strokeColor=none;" vertex="1" parent="1">
          <mxGeometry x="560" y="100" width="130" height="70" as="geometry" />
        </mxCell>
        <mxCell id="4oyovKfW9TJIHEhvJgS5-5" value="Ranking Analysis" style="rounded=1;whiteSpace=wrap;html=1;fillColor=#fff2cc;strokeColor=none;" vertex="1" parent="1">
          <mxGeometry x="160" y="340" width="130" height="70" as="geometry" />
        </mxCell>
        <mxCell id="4oyovKfW9TJIHEhvJgS5-6" value="Magnitude Exploration" style="rounded=1;whiteSpace=wrap;html=1;fillColor=#fff2cc;strokeColor=none;" vertex="1" parent="1">
          <mxGeometry x="360" y="340" width="130" height="70" as="geometry" />
        </mxCell>
        <mxCell id="4oyovKfW9TJIHEhvJgS5-7" value="Measure Exploration" style="rounded=1;whiteSpace=wrap;html=1;fillColor=#dae8fc;strokeColor=none;" vertex="1" parent="1">
          <mxGeometry x="560" y="340" width="130" height="70" as="geometry" />
        </mxCell>
        <mxCell id="4oyovKfW9TJIHEhvJgS5-8" style="edgeStyle=orthogonalEdgeStyle;rounded=0;orthogonalLoop=1;jettySize=auto;html=1;entryX=0.438;entryY=0.943;entryDx=0;entryDy=0;entryPerimeter=0;" edge="1" parent="1" source="4oyovKfW9TJIHEhvJgS5-1" target="4oyovKfW9TJIHEhvJgS5-2">
          <mxGeometry relative="1" as="geometry" />
        </mxCell>
        <mxCell id="4oyovKfW9TJIHEhvJgS5-14" value="Step 1" style="text;html=1;align=center;verticalAlign=middle;whiteSpace=wrap;rounded=1;fillColor=#d5e8d4;strokeColor=none;" vertex="1" parent="1">
          <mxGeometry x="195" y="90" width="60" height="20" as="geometry" />
        </mxCell>
        <mxCell id="4oyovKfW9TJIHEhvJgS5-15" value="Step 2" style="text;html=1;align=center;verticalAlign=middle;whiteSpace=wrap;rounded=1;fillColor=#d5e8d4;strokeColor=none;" vertex="1" parent="1">
          <mxGeometry x="395" y="90" width="60" height="20" as="geometry" />
        </mxCell>
        <mxCell id="4oyovKfW9TJIHEhvJgS5-16" value="Step 3" style="text;html=1;align=center;verticalAlign=middle;whiteSpace=wrap;rounded=1;fillColor=#d5e8d4;strokeColor=none;" vertex="1" parent="1">
          <mxGeometry x="595" y="90" width="60" height="20" as="geometry" />
        </mxCell>
        <mxCell id="4oyovKfW9TJIHEhvJgS5-18" value="Step 5" style="text;html=1;align=center;verticalAlign=middle;whiteSpace=wrap;rounded=1;fillColor=#d5e8d4;strokeColor=none;" vertex="1" parent="1">
          <mxGeometry x="395" y="330" width="60" height="20" as="geometry" />
        </mxCell>
        <mxCell id="4oyovKfW9TJIHEhvJgS5-20" value="" style="edgeStyle=orthogonalEdgeStyle;rounded=0;orthogonalLoop=1;jettySize=auto;html=1;entryX=0.438;entryY=-0.043;entryDx=0;entryDy=0;entryPerimeter=0;" edge="1" parent="1" source="4oyovKfW9TJIHEhvJgS5-1" target="4oyovKfW9TJIHEhvJgS5-19">
          <mxGeometry relative="1" as="geometry">
            <mxPoint x="330" y="255" as="sourcePoint" />
            <mxPoint x="217" y="337" as="targetPoint" />
          </mxGeometry>
        </mxCell>
        <mxCell id="4oyovKfW9TJIHEhvJgS5-19" value="Step 6" style="text;html=1;align=center;verticalAlign=middle;whiteSpace=wrap;rounded=1;fillColor=#d5e8d4;strokeColor=none;" vertex="1" parent="1">
          <mxGeometry x="190" y="330" width="60" height="20" as="geometry" />
        </mxCell>
        <mxCell id="4oyovKfW9TJIHEhvJgS5-21" style="edgeStyle=orthogonalEdgeStyle;rounded=0;orthogonalLoop=1;jettySize=auto;html=1;exitX=0.5;exitY=1;exitDx=0;exitDy=0;" edge="1" parent="1" source="4oyovKfW9TJIHEhvJgS5-18" target="4oyovKfW9TJIHEhvJgS5-18">
          <mxGeometry relative="1" as="geometry" />
        </mxCell>
        <mxCell id="4oyovKfW9TJIHEhvJgS5-22" value="" style="edgeStyle=orthogonalEdgeStyle;rounded=0;orthogonalLoop=1;jettySize=auto;html=1;entryX=0.5;entryY=0;entryDx=0;entryDy=0;" edge="1" parent="1" source="4oyovKfW9TJIHEhvJgS5-1" target="4oyovKfW9TJIHEhvJgS5-17">
          <mxGeometry relative="1" as="geometry">
            <mxPoint x="520" y="255" as="sourcePoint" />
            <mxPoint x="625" y="340" as="targetPoint" />
          </mxGeometry>
        </mxCell>
        <mxCell id="4oyovKfW9TJIHEhvJgS5-17" value="Step 4" style="text;html=1;align=center;verticalAlign=middle;whiteSpace=wrap;rounded=1;fillColor=#d5e8d4;strokeColor=none;" vertex="1" parent="1">
          <mxGeometry x="595" y="330" width="60" height="20" as="geometry" />
        </mxCell>
        <mxCell id="4oyovKfW9TJIHEhvJgS5-24" value="Exploratory Data Analysis Flow" style="text;html=1;align=center;verticalAlign=middle;whiteSpace=wrap;rounded=0;fontSize=17;fontStyle=1" vertex="1" parent="1">
          <mxGeometry width="270" height="60" as="geometry" />
        </mxCell>
      </root>
    </mxGraphModel>
  </diagram>
</mxfile>
